<?xml version="1.0" encoding="utf-8"?>
<!-- Generator: Adobe Illustrator 25.0.0, SVG Export Plug-In . SVG Version: 6.00 Build 0)  -->
<svg version="1.1" id="Layer_1" xmlns="http://www.w3.org/2000/svg" xmlns:xlink="http://www.w3.org/1999/xlink" x="0px" y="0px"
	 viewBox="0 0 118 26" style="enable-background:new 0 0 118 26;" xml:space="preserve">
<style type="text/css">
	.st0{clip-path:url(#SVGID_2_);}
	.st1{fill:#FE4F70;}
</style>
<g>
	<g>
		<defs>
			<rect id="SVGID_1_" width="118" height="26"/>
		</defs>
		<clipPath id="SVGID_2_">
			<use xlink:href="#SVGID_1_"  style="overflow:visible;"/>
		</clipPath>
		<g class="st0">
			<g>
				<path d="M11.8,17.5l4.1-8.7c0.2-0.4,0.4-0.6,0.6-0.8c0.2,0,0.5-0.1,0.8-0.1h0.3c0.4,0,0.7,0.1,0.9,0.4c0.3,0.3,0.4,0.6,0.5,1
					l1.5,12c0.1,0.4-0.1,0.7-0.4,1s-0.6,0.5-1.1,0.5c-0.4,0-0.8-0.1-1.1-0.3c-0.3-0.3-0.5-0.6-0.6-1l-0.9-7.6L13.5,20
					c-0.4,0.9-1,1.3-1.7,1.3s-1.3-0.4-1.7-1.3l-3-6.1l-0.9,7.6c0,0.4-0.2,0.7-0.6,1c-0.3,0.3-0.7,0.4-1.1,0.3
					c-0.4,0-0.8-0.2-1.1-0.5S3,21.6,3,21.3l1.5-12c0.1-0.4,0.2-0.7,0.5-1c0.3-0.2,0.6-0.4,1-0.4h0.3c0.4,0,0.6,0.1,0.8,0.2
					c0.2,0.1,0.4,0.4,0.6,0.8L11.8,17.5z"/>
				<path d="M29.3,21.3c-0.3,0.5-0.7,0.9-1.2,1.2S27,23,26.4,23c-2.5,0-3.7-1.3-3.7-4v-5c0-0.4,0.1-0.7,0.4-0.9s0.6-0.4,1.1-0.4
					c0.4,0,0.8,0.1,1.1,0.4c0.3,0.3,0.4,0.6,0.4,0.9v4.1c0,0.7,0.1,1.2,0.4,1.5s0.7,0.5,1.3,0.5c1.2,0,1.8-0.7,1.8-2V14
					c0-0.4,0.1-0.7,0.4-0.9s0.6-0.4,1.1-0.4s0.8,0.1,1,0.4c0.3,0.3,0.4,0.6,0.5,0.9v7.6c0,0.3-0.2,0.7-0.5,0.9
					c-0.3,0.3-0.6,0.4-1,0.4s-0.8-0.1-1.1-0.4s-0.4-0.6-0.4-0.9v-0.3H29.3z"/>
				<path d="M37.9,21.6c0,0.4-0.1,0.7-0.4,0.9s-0.6,0.4-1.1,0.4c-0.4,0-0.8-0.1-1-0.4c-0.3-0.3-0.4-0.6-0.5-0.9v-13
					c0-0.4,0.2-0.7,0.5-0.9c0.3-0.3,0.6-0.4,1-0.4s0.8,0.1,1.1,0.4c0.3,0.3,0.4,0.6,0.4,0.9V21.6z"/>
				<path d="M47.9,14c0-0.3,0.2-0.7,0.5-0.9c0.3-0.3,0.6-0.4,1-0.4s0.8,0.1,1.1,0.4s0.4,0.6,0.4,0.9v7.6c0,0.4-0.1,0.7-0.4,0.9
					s-0.6,0.4-1.1,0.4c-0.4,0-0.7-0.1-1-0.4s-0.5-0.6-0.5-0.9v-0.2c-0.3,0.5-0.8,0.9-1.3,1.2C46,22.8,45.5,23,44.9,23
					c-1.3,0-2.5-0.5-3.4-1.4c-1-0.9-1.4-2.2-1.4-3.8c0-1.6,0.5-2.8,1.4-3.8c1-0.9,2.1-1.4,3.4-1.4c0.5,0,1,0.1,1.6,0.4
					c0.6,0.2,1.1,0.7,1.4,1.2V14z M47.2,19.6c0.5-0.5,0.7-1.1,0.7-1.8s-0.2-1.3-0.7-1.8s-1.1-0.8-1.7-0.8c-0.7,0-1.3,0.2-1.7,0.7
					s-0.6,1.1-0.6,1.8s0.2,1.3,0.6,1.8c0.4,0.5,1,0.7,1.7,0.7C46.1,20.3,46.7,20.1,47.2,19.6z"/>
				<path d="M57.2,20.1h3.6c0.3,0,0.6,0.1,0.9,0.4c0.3,0.3,0.4,0.6,0.4,1s-0.1,0.7-0.4,1s-0.6,0.4-0.9,0.4h-6.5
					c-0.4,0-0.7-0.1-1-0.4c-0.3-0.2-0.4-0.5-0.4-0.9v-0.1c0-0.6,0.2-1,0.6-1.4l4.1-4.5h-3.3c-0.3,0-0.6-0.1-0.9-0.4
					c-0.3-0.3-0.4-0.6-0.4-0.9c0-0.4,0.1-0.7,0.4-1c0.3-0.3,0.6-0.4,0.9-0.4h6.2c0.4,0,0.7,0.1,1,0.3s0.4,0.6,0.4,0.9v0.1
					c0,0.5-0.2,1-0.6,1.4L57.2,20.1z"/>
				<path d="M66.9,7.9c0.4,0.3,0.5,0.7,0.5,1.2s-0.2,0.9-0.5,1.2c-0.4,0.3-0.8,0.5-1.3,0.5s-0.9-0.2-1.3-0.5s-0.6-0.8-0.6-1.2
					c0-0.5,0.2-0.9,0.6-1.2c0.4-0.3,0.8-0.5,1.3-0.5C66.1,7.4,66.5,7.5,66.9,7.9z M67.1,21.6c0,0.4-0.1,0.7-0.4,0.9
					s-0.6,0.4-1.1,0.4c-0.4,0-0.7-0.1-1-0.4s-0.5-0.6-0.5-0.9V14c0-0.3,0.2-0.7,0.5-0.9c0.3-0.3,0.6-0.4,1-0.4s0.8,0.1,1.1,0.4
					s0.4,0.6,0.4,0.9V21.6z"/>
				<path d="M85.4,21.6c0,0.4-0.1,0.7-0.4,0.9s-0.6,0.4-1.1,0.4c-0.4,0-0.7-0.1-1-0.4s-0.5-0.6-0.5-0.9v-4.1c0-0.6-0.2-1.1-0.5-1.5
					c-0.3-0.3-0.7-0.5-1.2-0.5s-0.9,0.2-1.2,0.5c-0.3,0.3-0.5,0.8-0.5,1.5v4.1c0,0.4-0.1,0.7-0.4,0.9s-0.6,0.4-1.1,0.4
					c-0.4,0-0.7-0.1-1-0.4S76,21.9,76,21.6v-4.2c0-0.6-0.2-1.1-0.5-1.4c-0.3-0.3-0.7-0.5-1.2-0.5s-0.9,0.2-1.2,0.5
					c-0.3,0.3-0.5,0.8-0.5,1.5v4.1c0,0.4-0.1,0.7-0.4,0.9s-0.6,0.4-1.1,0.4c-0.4,0-0.7-0.1-1-0.4s-0.5-0.6-0.5-0.9V14
					c0-0.3,0.2-0.7,0.5-0.9c0.3-0.3,0.6-0.4,1-0.4s0.8,0.1,1.1,0.4s0.4,0.6,0.4,0.9v0.2c0.2-0.5,0.6-0.9,1.1-1.2s1-0.4,1.5-0.4
					c0.8,0,1.5,0.1,2,0.4c0.5,0.3,1,0.8,1.3,1.5c0.3-0.7,0.8-1.2,1.3-1.5c0.6-0.3,1.1-0.4,1.6-0.4c1.2,0,2.2,0.4,2.9,1.1
					c0.7,0.8,1,1.9,1.1,3.4C85.4,17.1,85.4,21.6,85.4,21.6z"/>
				<path d="M96.7,21.2c-0.1,0.4-0.3,0.7-0.7,0.9c-0.9,0.6-2.1,0.9-3.4,0.9c-1.5,0-2.7-0.5-3.7-1.5s-1.5-2.2-1.5-3.8
					c0-1.5,0.5-2.8,1.5-3.7s2.2-1.4,3.7-1.4s2.7,0.5,3.7,1.5s1.5,2.2,1.5,3.8c0,0.2-0.1,0.5-0.3,0.6c-0.2,0.2-0.4,0.3-0.6,0.3h-6.4
					c0.1,0.5,0.4,1,0.8,1.2c0.5,0.3,1,0.4,1.6,0.4c0.7,0,1.3-0.2,1.7-0.5c0.4-0.2,0.7-0.3,1-0.3s0.6,0.2,0.8,0.4
					C96.7,20.4,96.8,20.8,96.7,21.2z M94.7,16.9c-0.1-0.6-0.3-1.1-0.7-1.4c-0.4-0.3-0.9-0.5-1.4-0.5c-1.2,0-2,0.6-2.2,1.8h4.3V16.9z
					"/>
				<path d="M100.4,12.8v-2.6c0-0.4,0.2-0.7,0.5-0.9c0.3-0.3,0.6-0.4,1-0.4s0.8,0.1,1.1,0.4c0.3,0.3,0.4,0.6,0.4,0.9v2.6h1.1
					c0.3,0,0.6,0.1,0.8,0.3c0.2,0.2,0.3,0.5,0.3,0.8s-0.1,0.6-0.3,0.8c-0.2,0.2-0.5,0.4-0.8,0.4h-1.1v6.4c0,0.4-0.1,0.7-0.4,0.9
					s-0.6,0.4-1.1,0.4c-0.4,0-0.7-0.1-1-0.4s-0.5-0.6-0.5-0.9v-6.4h-0.8c-0.3,0-0.5-0.1-0.8-0.4c-0.2-0.2-0.3-0.5-0.3-0.8
					s0.1-0.6,0.3-0.8c0.2-0.2,0.5-0.3,0.8-0.3C99.6,12.8,100.4,12.8,100.4,12.8z"/>
			</g>
			<circle class="st1" cx="111" cy="21" r="4"/>
		</g>
	</g>
</g>
</svg>
